<svg width="32" height="32" viewBox="0 0 32 32" fill="none" xmlns="http://www.w3.org/2000/svg">
<path d="M16.0001 30C18.7691 30 21.4758 29.1789 23.7781 27.6405C26.0804 26.1022 27.8748 23.9157 28.9344 21.3575C29.9941 18.7994 30.2713 15.9844 29.7311 13.2687C29.1909 10.553 27.8575 8.05841 25.8996 6.10048C23.9417 4.14254 21.4471 2.80917 18.7314 2.26898C16.0156 1.72878 13.2007 2.00603 10.6425 3.06566C8.08438 4.12528 5.89788 5.9197 4.35954 8.22199C2.8212 10.5243 2.00012 13.231 2.00012 16C2.00012 19.713 3.47511 23.274 6.10062 25.8995C8.72613 28.525 12.2871 30 16.0001 30V30ZM16.0001 3.99997C18.3735 3.99997 20.6936 4.70376 22.667 6.02234C24.6403 7.34091 26.1784 9.21505 27.0867 11.4078C27.9949 13.6005 28.2326 16.0133 27.7695 18.3411C27.3065 20.6688 26.1636 22.807 24.4854 24.4853C22.8072 26.1635 20.669 27.3064 18.3412 27.7694C16.0134 28.2324 13.6006 27.9948 11.4079 27.0865C9.2152 26.1783 7.34106 24.6402 6.02248 22.6668C4.7039 20.6934 4.00012 18.3733 4.00012 16C4.00012 12.8174 5.2644 9.76513 7.51484 7.51469C9.76527 5.26425 12.8175 3.99997 16.0001 3.99997Z" fill="black"/>
<path d="M17.0001 24H15.0001V13H17.0001V24Z" fill="black"/>
<path d="M16.0001 9.99997C16.2968 9.99997 16.5868 9.912 16.8335 9.74717C17.0801 9.58235 17.2724 9.34808 17.3859 9.07399C17.4995 8.7999 17.5292 8.49831 17.4713 8.20733C17.4134 7.91636 17.2706 7.64909 17.0608 7.43931C16.851 7.22953 16.5837 7.08667 16.2928 7.02879C16.0018 6.97091 15.7002 7.00062 15.4261 7.11415C15.152 7.22768 14.9177 7.41994 14.7529 7.66661C14.5881 7.91329 14.5001 8.2033 14.5001 8.49997C14.5001 8.89779 14.6582 9.27932 14.9395 9.56063C15.2208 9.84193 15.6023 9.99997 16.0001 9.99997Z" fill="black"/>
</svg>
